<svg data-v-423bf9ae="" xmlns="http://www.w3.org/2000/svg" viewBox="0 0 363.690699454738 163" class="iconAbove"><!----><!----><!----><g data-v-423bf9ae="" id="635c954a-1bff-4799-80bb-90415ca0d84f" fill="white" transform="matrix(5.272407679843658,0,0,5.272407679843658,-2.2144108349978353,84.81019396838713)"><path d="M0.42 14.43L0.42 14.43L0.42 14.01L0.42 14.01Q0.42 13.80 0.63 13.80L0.63 13.80L0.72 13.80L0.72 13.80Q1.67 13.75 1.67 12.47L1.67 12.47L1.67 6.32L1.67 6.32Q1.67 4.98 0.66 4.98L0.66 4.98L0.64 4.98L0.64 4.98Q0.43 4.98 0.43 4.77L0.43 4.77L0.43 4.35L0.43 4.35Q0.43 4.14 0.64 4.14L0.64 4.14L5.78 4.14L5.78 4.14Q6.61 4.14 7.32 4.38L7.32 4.38L7.32 4.38Q8.03 4.62 8.50 5.02L8.50 5.02L8.50 5.02Q8.98 5.43 9.25 5.97L9.25 5.97L9.25 5.97Q9.52 6.51 9.52 7.10L9.52 7.10L9.52 7.10Q9.52 7.87 9.11 8.53L9.11 8.53L9.11 8.53Q8.71 9.19 7.85 9.60L7.85 9.60L9.38 12.47L9.38 12.47Q9.52 12.73 9.56 12.80L9.56 12.80L9.56 12.80Q9.60 12.87 9.73 13.08L9.73 13.08L9.73 13.08Q9.86 13.30 9.94 13.37L9.94 13.37L9.94 13.37Q10.02 13.45 10.16 13.58L10.16 13.58L10.16 13.58Q10.30 13.70 10.45 13.75L10.45 13.75L10.45 13.75Q10.60 13.79 10.77 13.80L10.77 13.80L10.86 13.80L10.86 13.80Q11.06 13.80 11.06 14.01L11.06 14.01L11.06 14.43L11.06 14.43Q11.06 14.64 10.86 14.64L10.86 14.64L6.55 14.64L6.55 14.64Q6.34 14.64 6.34 14.43L6.34 14.43L6.34 14.01L6.34 14.01Q6.34 13.80 6.55 13.80L6.55 13.80L6.64 13.80L6.64 13.80Q6.97 13.78 7.15 13.60L7.15 13.60L7.15 13.60Q7.33 13.41 7.33 13.12L7.33 13.12L7.33 13.12Q7.33 12.81 7.14 12.47L7.14 12.47L5.87 10.10L5.87 10.10Q5.44 10.14 4.95 10.14L4.95 10.14L3.90 10.14L3.90 12.47L3.90 12.47Q3.90 13.75 4.85 13.80L4.85 13.80L4.94 13.80L4.94 13.80Q5.15 13.80 5.15 14.01L5.15 14.01L5.15 14.43L5.15 14.43Q5.15 14.64 4.94 14.64L4.94 14.64L0.63 14.64L0.63 14.64Q0.42 14.64 0.42 14.43ZM3.90 4.98L3.90 9.15L4.72 9.15L4.72 9.15Q6.08 9.15 6.75 8.61L6.75 8.61L6.75 8.61Q7.42 8.07 7.42 7.10L7.42 7.10L7.42 7.10Q7.42 6.12 6.82 5.55L6.82 5.55L6.82 5.55Q6.22 4.98 5.17 4.98L5.17 4.98L3.90 4.98ZM11.45 14.43L11.45 14.43L11.45 14.01L11.45 14.01Q11.45 13.80 11.66 13.80L11.66 13.80L11.68 13.80L11.68 13.80Q12.69 13.80 12.69 12.47L12.69 12.47L12.69 6.32L12.69 6.32Q12.69 4.98 11.68 4.98L11.68 4.98L11.66 4.98L11.66 4.98Q11.45 4.98 11.45 4.78L11.45 4.78L11.45 4.35L11.45 4.35Q11.45 4.14 11.66 4.14L11.66 4.14L16.17 4.14L16.17 4.14Q17.09 4.14 17.87 4.45L17.87 4.45L17.87 4.45Q18.66 4.75 19.14 5.34L19.14 5.34L19.14 5.34Q19.63 5.93 19.63 6.68L19.63 6.68L19.63 6.68Q19.63 7.25 19.28 7.76L19.28 7.76L19.28 7.76Q18.93 8.28 18.21 8.63L18.21 8.63L18.21 8.63Q20.54 9.30 20.54 11.55L20.54 11.55L20.54 11.55Q20.54 12.15 20.28 12.70L20.28 12.70L20.28 12.70Q20.01 13.26 19.53 13.69L19.53 13.69L19.53 13.69Q19.06 14.12 18.35 14.38L18.35 14.38L18.35 14.38Q17.64 14.64 16.81 14.64L16.81 14.64L11.66 14.64L11.66 14.64Q11.45 14.64 11.45 14.43ZM14.85 4.98L14.85 8.37L15.72 8.37L15.72 8.37Q16.67 8.37 17.10 7.90L17.10 7.90L17.10 7.90Q17.53 7.44 17.53 6.68L17.53 6.68L17.53 6.68Q17.53 5.91 17.06 5.44L17.06 5.44L17.06 5.44Q16.59 4.98 15.78 4.98L15.78 4.98L14.85 4.98ZM14.93 9.36L14.93 12.47L14.93 12.47Q14.93 13.74 15.85 13.80L15.85 13.80L16.19 13.80L16.19 13.80Q17.23 13.80 17.83 13.17L17.83 13.17L17.83 13.17Q18.44 12.54 18.44 11.55L18.44 11.55L18.44 11.55Q18.44 10.39 17.80 9.87L17.80 9.87L17.80 9.87Q17.15 9.36 15.74 9.36L15.74 9.36L14.93 9.36ZM24.69 6.24L24.69 6.24L24.69 6.24Q24.69 6.19 24.73 6.12L24.73 6.12L25.85 4.07L25.85 4.07Q25.92 3.95 26.02 3.95L26.02 3.95L26.02 3.95Q26.07 3.95 26.14 4.00L26.14 4.00L26.22 4.07L26.22 4.07Q26.30 4.14 26.48 4.14L26.48 4.14L33.65 4.14L33.65 4.14Q33.83 4.14 33.91 4.07L33.91 4.07L33.99 4.00L33.99 4.00Q34.06 3.95 34.11 3.95L34.11 3.95L34.11 3.95Q34.22 3.95 34.29 4.07L34.29 4.07L35.40 6.12L35.40 6.12Q35.44 6.17 35.44 6.24L35.44 6.24L35.44 6.24Q35.44 6.34 35.32 6.41L35.32 6.41L34.74 6.73L34.74 6.73Q34.68 6.77 34.61 6.77L34.61 6.77L34.61 6.77Q34.51 6.77 34.44 6.64L34.44 6.64L34.40 6.57L34.40 6.57Q33.65 5.28 31.88 5.28L31.88 5.28L31.17 5.28L31.17 12.47L31.17 12.47Q31.17 13.75 32.11 13.80L32.11 13.80L32.20 13.80L32.20 13.80Q32.42 13.80 32.42 14.01L32.42 14.01L32.42 14.43L32.42 14.43Q32.42 14.64 32.20 14.64L32.20 14.64L27.90 14.64L27.90 14.64Q27.69 14.64 27.69 14.43L27.69 14.43L27.69 14.01L27.69 14.01Q27.69 13.80 27.90 13.80L27.90 13.80L27.99 13.80L27.99 13.80Q28.93 13.75 28.93 12.47L28.93 12.47L28.93 5.28L28.25 5.28L28.25 5.28Q26.48 5.28 25.74 6.57L25.74 6.57L25.69 6.64L25.69 6.64Q25.61 6.77 25.52 6.77L25.52 6.77L25.52 6.77Q25.46 6.77 25.40 6.73L25.40 6.73L24.81 6.41L24.81 6.41Q24.69 6.34 24.69 6.24ZM34.32 14.43L34.32 14.43L34.32 14.01L34.32 14.01Q34.32 13.80 34.53 13.80L34.53 13.80L34.56 13.80L34.56 13.80Q35.05 13.80 35.32 13.43L35.32 13.43L35.32 13.43Q35.58 13.06 35.58 12.47L35.58 12.47L35.58 10.71L35.58 10.71Q35.58 10.37 35.56 10.14L35.56 10.14L35.56 10.14Q35.53 9.92 35.46 9.67L35.46 9.67L35.46 9.67Q35.38 9.41 35.21 9.27L35.21 9.27L35.21 9.27Q35.03 9.13 34.75 9.10L34.75 9.10L34.75 9.10Q34.58 9.08 34.59 8.92L34.59 8.92L34.59 8.44L34.59 8.44Q34.59 8.29 34.79 8.26L34.79 8.26L34.79 8.26Q35.68 8.11 36.44 7.81L36.44 7.81L36.44 7.81Q37.20 7.50 37.56 7.24L37.56 7.24L37.56 7.24Q37.61 7.21 37.63 7.21L37.63 7.21L37.66 7.21L37.66 7.21Q37.67 7.21 37.67 7.23L37.67 7.23L37.34 9.11L37.34 9.11Q37.72 8.32 38.38 7.89L38.38 7.89L38.38 7.89Q39.04 7.46 39.81 7.46L39.81 7.46L39.81 7.46Q40.50 7.46 40.94 7.84L40.94 7.84L40.94 7.84Q41.39 8.22 41.39 8.91L41.39 8.91L41.39 8.91Q41.39 9.28 41.32 9.49L41.32 9.49L41.32 9.49Q41.25 9.70 41.02 9.80L41.02 9.80L39.71 10.34L39.71 10.34Q39.65 10.36 39.59 10.36L39.59 10.36L39.59 10.36Q39.46 10.36 39.46 10.23L39.46 10.23L39.46 10.23Q39.46 10.16 39.48 10.10L39.48 10.10L39.48 10.10Q39.61 9.79 39.61 9.41L39.61 9.41L39.61 9.41Q39.61 9.04 39.43 8.86L39.43 8.86L39.43 8.86Q39.25 8.68 38.95 8.68L38.95 8.68L38.95 8.68Q38.51 8.68 38.12 9.06L38.12 9.06L38.12 9.06Q37.73 9.44 37.55 9.89L37.55 9.89L37.55 12.47L37.55 12.47Q37.55 13.06 37.82 13.43L37.82 13.43L37.82 13.43Q38.08 13.80 38.58 13.80L38.58 13.80L38.60 13.80L38.60 13.80Q38.81 13.80 38.81 14.01L38.81 14.01L38.81 14.43L38.81 14.43Q38.81 14.64 38.60 14.64L38.60 14.64L34.53 14.64L34.53 14.64Q34.32 14.64 34.32 14.43ZM41.73 11.13L41.73 11.13L41.73 11.13Q41.73 10.19 42.00 9.47L42.00 9.47L42.00 9.47Q42.27 8.75 42.74 8.32L42.74 8.32L42.74 8.32Q43.20 7.90 43.78 7.68L43.78 7.68L43.78 7.68Q44.35 7.46 45.01 7.46L45.01 7.46L45.01 7.46Q46.38 7.46 47.28 8.28L47.28 8.28L47.28 8.28Q47.44 8.21 47.58 8.15L47.58 8.15L47.58 8.15Q47.72 8.08 47.85 8.01L47.85 8.01L47.85 8.01Q47.97 7.94 48.06 7.90L48.06 7.90L48.06 7.90Q48.14 7.85 48.25 7.78L48.25 7.78L48.25 7.78Q48.36 7.71 48.40 7.69L48.40 7.69L48.40 7.69Q48.43 7.66 48.54 7.58L48.54 7.58L48.54 7.58Q48.65 7.50 48.67 7.49L48.67 7.49L48.67 7.49Q48.71 7.46 48.73 7.46L48.73 7.46L48.76 7.46L48.76 7.46Q48.77 7.46 48.77 7.49L48.77 7.49L48.77 12.05L48.77 12.05Q48.78 12.34 48.82 12.54L48.82 12.54L48.82 12.54Q48.85 12.75 48.94 12.95L48.94 12.95L48.94 12.95Q49.02 13.15 49.19 13.27L49.19 13.27L49.19 13.27Q49.36 13.39 49.60 13.42L49.60 13.42L49.60 13.42Q49.78 13.44 49.77 13.60L49.77 13.60L49.77 14.08L49.77 14.08Q49.77 14.26 49.56 14.26L49.56 14.26L49.56 14.26Q48.92 14.26 48.40 14.35L48.40 14.35L48.40 14.35Q47.89 14.44 47.64 14.53L47.64 14.53L47.64 14.53Q47.40 14.62 46.98 14.80L46.98 14.80L46.98 14.80Q46.93 14.83 46.87 14.83L46.87 14.83L46.83 14.83L46.83 14.83Q46.81 14.83 46.81 14.78L46.81 14.78L46.98 13.54L46.98 13.54Q46.90 13.72 46.77 13.90L46.77 13.90L46.77 13.90Q46.64 14.09 46.40 14.31L46.40 14.31L46.40 14.31Q46.16 14.54 45.75 14.68L45.75 14.68L45.75 14.68Q45.34 14.83 44.84 14.83L44.84 14.83L44.84 14.83Q44.44 14.83 44.03 14.71L44.03 14.71L44.03 14.71Q43.61 14.59 43.20 14.30L43.20 14.30L43.20 14.30Q42.78 14.01 42.46 13.60L42.46 13.60L42.46 13.60Q42.14 13.19 41.94 12.55L41.94 12.55L41.94 12.55Q41.73 11.91 41.73 11.13ZM43.54 10.68L43.54 10.68L43.54 10.68Q43.54 12.01 44.07 12.80L44.07 12.80L44.07 12.80Q44.60 13.59 45.47 13.59L45.47 13.59L45.47 13.59Q45.77 13.59 46.01 13.49L46.01 13.49L46.01 13.49Q46.25 13.40 46.40 13.27L46.40 13.27L46.40 13.27Q46.54 13.13 46.64 13.00L46.64 13.00L46.64 13.00Q46.74 12.86 46.79 12.76L46.79 12.76L46.82 12.67L46.82 9.86L46.82 9.86Q46.77 9.61 46.68 9.39L46.68 9.39L46.68 9.39Q46.59 9.16 46.42 8.92L46.42 8.92L46.42 8.92Q46.25 8.68 45.95 8.54L45.95 8.54L45.95 8.54Q45.65 8.39 45.26 8.39L45.26 8.39L45.26 8.39Q44.87 8.39 44.56 8.52L44.56 8.52L44.56 8.52Q44.26 8.65 44.07 8.87L44.07 8.87L44.07 8.87Q43.88 9.08 43.76 9.38L43.76 9.38L43.76 9.38Q43.63 9.68 43.59 9.99L43.59 9.99L43.59 9.99Q43.54 10.31 43.54 10.68ZM49.64 8.26L49.64 8.26L49.64 7.85L49.64 7.85Q49.64 7.64 49.85 7.64L49.85 7.64L53.09 7.64L53.09 7.64Q53.29 7.64 53.29 7.85L53.29 7.85L53.29 8.26L53.29 8.26Q53.29 8.48 53.09 8.48L53.09 8.48L53.06 8.48L53.06 8.48Q52.59 8.48 52.59 8.89L52.59 8.89L52.59 8.89Q52.59 9.23 52.87 9.81L52.87 9.81L54.16 12.54L55.34 9.81L55.34 9.81Q55.68 9.05 55.68 8.77L55.68 8.77L55.68 8.77Q55.68 8.48 55.37 8.48L55.37 8.48L55.10 8.48L55.10 8.48Q54.89 8.48 54.89 8.26L54.89 8.26L54.89 7.85L54.89 7.85Q54.89 7.64 55.10 7.64L55.10 7.64L57.66 7.64L57.66 7.64Q57.87 7.64 57.87 7.85L57.87 7.85L57.87 8.26L57.87 8.26Q57.87 8.48 57.66 8.48L57.66 8.48L57.46 8.48L57.46 8.48Q57.23 8.48 57.05 8.66L57.05 8.66L57.05 8.66Q56.88 8.84 56.64 9.35L56.64 9.35L54.28 14.49L54.28 14.49Q54.22 14.64 54.04 14.64L54.04 14.64L53.30 14.64L53.30 14.64Q53.12 14.64 53.05 14.49L53.05 14.49L50.70 9.36L50.70 9.36Q50.45 8.83 50.30 8.65L50.30 8.65L50.30 8.65Q50.14 8.48 49.89 8.48L49.89 8.48L49.85 8.48L49.85 8.48Q49.64 8.48 49.64 8.26ZM57.97 11.08L57.97 11.08L57.97 11.08Q57.97 10.33 58.16 9.71L58.16 9.71L58.16 9.71Q58.35 9.10 58.67 8.69L58.67 8.69L58.67 8.69Q58.99 8.29 59.42 8.01L59.42 8.01L59.42 8.01Q59.86 7.73 60.32 7.61L60.32 7.61L60.32 7.61Q60.79 7.49 61.30 7.49L61.30 7.49L61.30 7.49Q61.84 7.49 62.31 7.67L62.31 7.67L62.31 7.67Q62.79 7.85 63.12 8.13L63.12 8.13L63.12 8.13Q63.46 8.42 63.70 8.78L63.70 8.78L63.70 8.78Q63.94 9.14 64.06 9.50L64.06 9.50L64.06 9.50Q64.18 9.86 64.18 10.19L64.18 10.19L64.18 10.19Q64.18 10.31 64.07 10.36L64.07 10.36L60.01 12.14L60.01 12.14Q60.27 12.79 60.81 13.22L60.81 13.22L60.81 13.22Q61.35 13.64 62.10 13.64L62.10 13.64L62.10 13.64Q62.58 13.64 63.05 13.38L63.05 13.38L63.05 13.38Q63.53 13.13 63.89 12.61L63.89 12.61L63.89 12.61Q63.93 12.55 64.00 12.55L64.00 12.55L64.00 12.55Q64.10 12.55 64.57 12.82L64.57 12.82L64.57 12.82Q64.62 12.86 64.62 12.93L64.62 12.93L64.62 12.93Q64.62 13.02 64.53 13.18L64.53 13.18L64.53 13.18Q63.65 14.81 61.73 14.81L61.73 14.81L61.73 14.81Q60.60 14.81 59.73 14.30L59.73 14.30L59.73 14.30Q58.86 13.79 58.42 12.94L58.42 12.94L58.42 12.94Q57.97 12.10 57.97 11.08ZM60.05 9.05L60.05 9.05L60.05 9.05Q59.71 9.50 59.71 10.20L59.71 10.20L59.71 10.20Q59.71 10.90 59.83 11.27L59.83 11.27L62.08 10.13L62.08 10.13Q62.08 9.47 61.77 9.03L61.77 9.03L61.77 9.03Q61.45 8.59 60.96 8.59L60.96 8.59L60.96 8.59Q60.40 8.59 60.05 9.05ZM64.97 14.43L64.97 14.43L64.97 14.01L64.97 14.01Q64.97 13.80 65.17 13.80L65.17 13.80L65.17 13.80Q65.67 13.79 65.94 13.43L65.94 13.43L65.94 13.43Q66.19 13.07 66.19 12.52L66.19 12.52L66.19 12.52Q66.19 12.50 66.19 12.47L66.19 12.47L66.19 7.23L66.19 7.23Q66.19 6.88 66.17 6.66L66.17 6.66L66.17 6.66Q66.14 6.43 66.07 6.18L66.07 6.18L66.07 6.18Q65.99 5.93 65.82 5.78L65.82 5.78L65.82 5.78Q65.64 5.64 65.37 5.61L65.37 5.61L65.37 5.61Q65.19 5.59 65.20 5.43L65.20 5.43L65.20 4.96L65.20 4.96Q65.20 4.87 65.25 4.84L65.25 4.84L65.25 4.84Q65.29 4.81 65.40 4.77L65.40 4.77L65.40 4.77Q66.96 4.25 68.03 3.47L68.03 3.47L68.03 3.47Q68.07 3.45 68.09 3.45L68.09 3.45L68.13 3.45L68.13 3.45Q68.15 3.45 68.16 3.47L68.16 3.47L68.16 12.47L68.16 12.47Q68.16 13.06 68.43 13.43L68.43 13.43L68.43 13.43Q68.69 13.80 69.19 13.80L69.19 13.80L69.19 13.80Q69.40 13.80 69.40 14.01L69.40 14.01L69.40 14.43L69.40 14.43Q69.40 14.64 69.19 14.64L69.19 14.64L65.17 14.64L65.17 14.64Q64.97 14.64 64.97 14.43Z"></path></g><!----><g data-v-423bf9ae="" id="31308e47-a1bc-491f-8854-0fb66112b694" transform="matrix(1.0135709531801858,0,0,1.0135709531801858,131.3217263003113,-5.076038434691604)" stroke="none" fill="white"><path d="M93.926 7.859a2.211 2.211 0 0 0-.349-.445l-.398-.4a2.429 2.429 0 0 0-.434-.337c-4.462-2.678-12.771-.174-18.521 5.58l-8.416 8.414-38.194-2.546c-.062-.003-.123-.006-.185-.006-3.17.044-5.575 1.787-6.126 4.446-.542 2.612.829 6.561 6.472 9.113l18.231 9.116c-2.979 3.5-8.587 10.266-11.385 14.817l-10.62 1.181a2.312 2.312 0 0 0-2.042 2.555l.653 5.886a2.312 2.312 0 0 0 1.972 2.033l7.661 1.094 1.096 7.663a2.314 2.314 0 0 0 2.033 1.972l5.886.653a2.333 2.333 0 0 0 1.699-.492c.48-.384.785-.94.855-1.552l1.178-10.621c4.553-2.797 11.317-8.402 14.818-11.382l9.116 18.231c2.218 4.902 5.49 6.58 8.024 6.58.381 0 .747-.038 1.087-.108 2.66-.551 4.403-2.956 4.444-6.126 0-.062 0-.123-.003-.185l-2.549-38.198 8.414-8.414c5.756-5.752 8.261-14.06 5.583-18.522zM75.92 32.266a2.317 2.317 0 0 0-.674 1.79l2.61 39.141c-.023.706-.231 1.468-.756 1.576-.785.159-2.566-.744-3.979-3.884a1.118 1.118 0 0 0-.041-.086l-10.464-20.93a2.306 2.306 0 0 0-3.591-.703c-.117.101-11.725 10.272-17.326 13.383a2.314 2.314 0 0 0-1.175 1.767l-1.052 9.475-1.808-.202-1.054-7.383a2.318 2.318 0 0 0-.782-1.427 2.3 2.3 0 0 0-1.433-.788L27.01 62.94l-.199-1.808 9.475-1.055a2.31 2.31 0 0 0 1.767-1.175c3.111-5.602 13.28-17.208 13.383-17.324a2.317 2.317 0 0 0-.703-3.595L29.802 27.52c-.029-.015-.059-.026-.088-.041-3.138-1.409-4.049-3.188-3.885-3.976.108-.524.873-.734 1.579-.757l39.141 2.609a2.326 2.326 0 0 0 1.79-.672l9.154-9.157c4.614-4.614 10.351-5.996 12.604-5.019.973 2.256-.407 7.989-5.021 12.604l-9.156 9.155z"></path><path d="M26.061 46.546a2.313 2.313 0 0 0-3.27-3.269L5.679 60.389a2.31 2.31 0 0 0 0 3.271 2.308 2.308 0 0 0 3.27 0l17.112-17.114zM53.312 75.652L38.515 90.45a2.307 2.307 0 0 0 0 3.269c.451.453 1.043.679 1.635.679s1.184-.226 1.635-.679l14.798-14.797a2.309 2.309 0 0 0 0-3.27 2.31 2.31 0 0 0-3.271 0zM24.64 72.876L9.379 88.139a2.309 2.309 0 0 0 1.635 3.946c.592 0 1.184-.225 1.635-.676L27.91 76.148a2.315 2.315 0 0 0 0-3.271 2.311 2.311 0 0 0-3.27-.001z"></path></g><!----></svg>