<svg data-v-423bf9ae="" xmlns="http://www.w3.org/2000/svg" viewBox="0 0 60.8138808547537 60" class="icon"><!----><!----><!----><!----><g data-v-423bf9ae="" id="944ded76-a354-46be-80fe-d456af22b734" transform="matrix(0.6757139687867905,0,0,0.6757139687867905,-3.3787927773315403,-3.786043534402957)" stroke="none" fill="white"><path d="M93.926 7.859a2.211 2.211 0 0 0-.349-.445l-.398-.4a2.429 2.429 0 0 0-.434-.337c-4.462-2.678-12.771-.174-18.521 5.58l-8.416 8.414-38.194-2.546c-.062-.003-.123-.006-.185-.006-3.17.044-5.575 1.787-6.126 4.446-.542 2.612.829 6.561 6.472 9.113l18.231 9.116c-2.979 3.5-8.587 10.266-11.385 14.817l-10.62 1.181a2.312 2.312 0 0 0-2.042 2.555l.653 5.886a2.312 2.312 0 0 0 1.972 2.033l7.661 1.094 1.096 7.663a2.314 2.314 0 0 0 2.033 1.972l5.886.653a2.333 2.333 0 0 0 1.699-.492c.48-.384.785-.94.855-1.552l1.178-10.621c4.553-2.797 11.317-8.402 14.818-11.382l9.116 18.231c2.218 4.902 5.49 6.58 8.024 6.58.381 0 .747-.038 1.087-.108 2.66-.551 4.403-2.956 4.444-6.126 0-.062 0-.123-.003-.185l-2.549-38.198 8.414-8.414c5.756-5.752 8.261-14.06 5.583-18.522zM75.92 32.266a2.317 2.317 0 0 0-.674 1.79l2.61 39.141c-.023.706-.231 1.468-.756 1.576-.785.159-2.566-.744-3.979-3.884a1.118 1.118 0 0 0-.041-.086l-10.464-20.93a2.306 2.306 0 0 0-3.591-.703c-.117.101-11.725 10.272-17.326 13.383a2.314 2.314 0 0 0-1.175 1.767l-1.052 9.475-1.808-.202-1.054-7.383a2.318 2.318 0 0 0-.782-1.427 2.3 2.3 0 0 0-1.433-.788L27.01 62.94l-.199-1.808 9.475-1.055a2.31 2.31 0 0 0 1.767-1.175c3.111-5.602 13.28-17.208 13.383-17.324a2.317 2.317 0 0 0-.703-3.595L29.802 27.52c-.029-.015-.059-.026-.088-.041-3.138-1.409-4.049-3.188-3.885-3.976.108-.524.873-.734 1.579-.757l39.141 2.609a2.326 2.326 0 0 0 1.79-.672l9.154-9.157c4.614-4.614 10.351-5.996 12.604-5.019.973 2.256-.407 7.989-5.021 12.604l-9.156 9.155z"></path><path d="M26.061 46.546a2.313 2.313 0 0 0-3.27-3.269L5.679 60.389a2.31 2.31 0 0 0 0 3.271 2.308 2.308 0 0 0 3.27 0l17.112-17.114zM53.312 75.652L38.515 90.45a2.307 2.307 0 0 0 0 3.269c.451.453 1.043.679 1.635.679s1.184-.226 1.635-.679l14.798-14.797a2.309 2.309 0 0 0 0-3.27 2.31 2.31 0 0 0-3.271 0zM24.64 72.876L9.379 88.139a2.309 2.309 0 0 0 1.635 3.946c.592 0 1.184-.225 1.635-.676L27.91 76.148a2.315 2.315 0 0 0 0-3.271 2.311 2.311 0 0 0-3.27-.001z"></path></g><!----></svg>